<svg
        version="1.1"
        stroke="#52341c"
        stroke-width="40"
        xmlns="http://www.w3.org/2000/svg"
        xmlns:xlink="http://www.w3.org/1999/xlink"
        x="0px"
        y="0px"
        viewBox="0 0 565.7 565.7"
        style="enable-background:new 0 0 565.7 565.7;"
        xml:space="preserve"
      >
        <path
          d="M412.8,171.5l128.7,70.4c32.4,17.7,32.4,64.2,0,81.9l-128.7,70.4c-7.8,4.3-14.3,10.7-18.6,18.6l-70.4,128.7
                c-17.7,32.4-64.2,32.4-81.9,0l-70.4-128.7c-4.3-7.8-10.7-14.3-18.6-18.6L24.3,323.8c-32.4-17.7-32.4-64.2,0-81.9L153,171.5
                c7.8-4.3,14.3-10.7,18.6-18.6l70.4-128.7c17.7-32.4,64.2-32.4,81.9,0L394.2,153C398.5,160.8,404.9,167.2,412.8,171.5z"
        />
      </svg>